<?xml version="1.0" encoding="utf-8"?>
<!-- Generator: Adobe Illustrator 21.1.0, SVG Export Plug-In . SVG Version: 6.00 Build 0)  -->
<svg version="1.1" id="Layer_1" xmlns="http://www.w3.org/2000/svg" xmlns:xlink="http://www.w3.org/1999/xlink" x="0px" y="0px"
	 viewBox="0 0 256 256" style="enable-background:new 0 0 256 256;" xml:space="preserve">
<style type="text/css">
	.st0{fill:#008C99;}
</style>
<g>
	<path class="st0" d="M215.7,144c20.5-19.2,36.2-41.4,39.1-59.3c3-18.2,0.4-32.9-7.8-43.7l0,0c-8.3-10.8-21.4-17-40.1-19.1
		c-1.5-0.2-3.1-0.2-4.7-0.2c-16.1,0-34.5,7.8-45.2,22.7c-10.8-14.9-29.1-22.7-45.3-22.7c-1.6,0-3.2,0.1-4.7,0.2
		C88.3,24,75.2,30.2,67,41c-8.1,10.8-10.8,25.4-7.8,43.7c1.6,10,7.2,12.9,14.7,24.6h81.4c2.5,0,4.6,0.2,7,0.6
		c14.7,2.5,16.6,22.7,16.9,23.7l0,0.9v21.2c0,0-4.3,15.7-11.2,17.8C161.1,175.7,194.7,163.7,215.7,144z M0,114.1h35.5v120.1H0V114.1
		z M224.2,161.4c-1.5-0.5-2.9-0.8-4.4-0.5c-11.1,2-28.1,35-72,23c0,0-12.8-4.1-17.7-7.1c-4.3-2.4-13.4-7.8-20.9-13.5h44.4
		c0,0,1.8,0.1,3.9-0.4c2.9-0.7,6.3-2.4,6.3-7.2v-20.5c0,0-1.3-6.9-6.3-9.4c-1.1-0.5-2.4-0.9-3.9-0.9H50.5v87.4
		c0,0,69.6,21.9,94.2,21.9c0,0,61.4,2.7,102.4-45C247.1,189.2,236.4,166.1,224.2,161.4L224.2,161.4z M224.2,161.4"/>
</g>
</svg>
